<svg width="545" height="525" viewBox="0 0 545 525" fill="none" xmlns="http://www.w3.org/2000/svg">
<circle cx="284.982" cy="325" r="186" stroke="black" stroke-width="28"/>
<circle cx="169.982" cy="307" r="37" fill="black"/>
<circle cx="399.982" cy="307" r="37" fill="black"/>
<path d="M230.982 346V346C233.96 351.359 240.064 354.174 246.074 352.959L271.45 347.827C277.412 346.621 283.554 346.614 289.519 347.807L315.825 353.068C321.47 354.198 327.144 351.261 329.482 346V346" stroke="black" stroke-width="19" stroke-linecap="round"/>
<path d="M143.5 196.997L138.585 170.388C132.997 140.136 116.509 112.982 92.2447 94.0701V94.0701C81.2697 85.516 68.9507 78.8434 55.7901 74.3245L54.395 73.8454" stroke="black" stroke-width="20"/>
<circle cx="33" cy="66" r="22" stroke="black" stroke-width="22"/>
<circle cx="512" cy="33" r="22" stroke="black" stroke-width="22"/>
<path d="M410.146 195.805L417.103 171.199C430.224 124.79 455.573 82.7581 490.5 49.5V49.5" stroke="black" stroke-width="20"/>
</svg>
